<mxfile host="app.diagrams.net" modified="2024-08-27T04:20:39.009Z" agent="Mozilla/5.0 (Windows NT 10.0; Win64; x64) AppleWebKit/537.36 (KHTML, like Gecko) Chrome/127.0.0.0 Safari/537.36" version="24.6.2" etag="XIYzw3cXv9nf3GKIqUCU" type="github">
  <diagram name="Page-1" id="FK5L1RAT3CRfN6948Por">
    <mxGraphModel>
      <root>
        <mxCell id="0" />
        <mxCell id="1" parent="0" />
      </root>
    </mxGraphModel>
  </diagram>
</mxfile>
